<svg xmlns="http://www.w3.org/2000/svg" width="192.578" height="90.044" viewBox="0 0 192.578 90.044">
  <g id="_-Assets_partners" data-name="🔸-Assets/partners" transform="translate(-0.189 -0.033)">
    <g id="images_partners_toogethr" data-name="images/partners/toogethr" transform="translate(0.189 0.033)">
      <g id="toogethr-events-logo-copy" transform="translate(0 0)">
        <path id="Fill-1" d="M40.82,52C37.594,54.913,32.9,59.73,22.041,59.73S.623,52.876.623,38.612,11.187,17.944,22.335,17.944s15.847,5.821,17.02,6.985l-8.8,7.278a11.247,11.247,0,0,0-8.218-3.492c-4.693,0-8.389,3.492-8.389,9.9s3.7,9.9,8.389,9.9,5.577-1.454,5.577-1.454V44.141H21.748V34.418H40.82Z" transform="translate(0.548 30.314)" fill="#00284d" fill-rule="evenodd"/>
        <path id="Fill-3" d="M46.359,58.33H17.018V18.16H45.772V28.524H30.22v4.364H44.889V43.2H30.22V47.85H46.359Z" transform="translate(28.326 30.681)" fill="#00284d" fill-rule="evenodd"/>
        <path id="Fill-5" d="M61.5,28.405H51.926V58.331H38.669V28.405H29.163V18.16H61.5Z" transform="translate(48.904 30.68)" fill="#00284d" fill-rule="evenodd"/>
        <path id="Fill-7" d="M80.2,58.33H66.933V43.485H55.9V58.33H42.638V18.16H55.9V32.712H66.933V18.16H80.2Z" transform="translate(71.735 30.681)" fill="#00284d" fill-rule="evenodd"/>
        <path id="Fill-9" d="M77.533,28.813a4.555,4.555,0,0,0-2.93-.754H71.252v6.984H74.6a4.862,4.862,0,0,0,2.93-.7A2.973,2.973,0,0,0,79,31.55a2.9,2.9,0,0,0-1.469-2.737Zm17.2,29.518H79.469L73.017,44.941h-1.7V58.33H58.051V18.16H75.656c4.989,0,8.8.871,11.737,2.91a11.827,11.827,0,0,1,4.989,9.9c0,8.151-4.989,11.062-6.749,12.112Z" transform="translate(97.85 30.681)" fill="#00284d" fill-rule="evenodd"/>
        <path id="Fill-11" d="M32.522,10.677H22.956V40.605H9.692V10.677H.189V.431H32.522Z" transform="translate(-0.189 0.641)" fill="#00284d" fill-rule="evenodd"/>
        <path id="Fill-13" d="M33.567,29.752A8.56,8.56,0,1,1,42.2,21.193a8.592,8.592,0,0,1-8.628,8.559m0-29.719A21.161,21.161,0,1,0,54.9,21.193,21.247,21.247,0,0,0,33.567.033" transform="translate(20.228 -0.033)" fill="#00284d" fill-rule="evenodd"/>
        <path id="Fill-15" d="M45.678,29.752a8.56,8.56,0,1,1,8.63-8.559,8.593,8.593,0,0,1-8.63,8.559m0-29.719a21.161,21.161,0,1,0,21.331,21.16A21.245,21.245,0,0,0,45.678.033" transform="translate(40.748 -0.033)" fill="#00284d" fill-rule="evenodd"/>
      </g>
    </g>
  </g>
</svg>